<?xml version="1.0" encoding="UTF-8" standalone="no"?>
<svg
   width="128"
   height="128"
   version="1.1"
   id="svg6"
   xml:space="preserve"
   xmlns:xlink="http://www.w3.org/1999/xlink"
   xmlns="http://www.w3.org/2000/svg"
   xmlns:svg="http://www.w3.org/2000/svg"><defs
     id="defs6"><clipPath
       clipPathUnits="userSpaceOnUse"
       id="clipPath39"><use
         x="0"
         y="0"
         xlink:href="#g38"
         id="use39" /></clipPath></defs><g
     id="layer1"><g
       id="g39"
       clip-path="url(#clipPath39)"><g
         id="g38"><rect
           width="124"
           height="124"
           x="2"
           y="2"
           fill="#363d52"
           stroke="#212532"
           stroke-width="4"
           rx="14"
           id="rect1"
           style="fill:#4d4d4d;stroke:#333333" /></g><g
         id="g22"
         transform="matrix(1.3211295,0,0,1.3211295,6.8379375,-45.294393)"
         style="stroke-width:6.05542;stroke-dasharray:none"><g
           id="g21"
           style="stroke-width:6.05542;stroke-dasharray:none"><circle
             style="fill:none;stroke:#333333;stroke-width:6.05542;stroke-linecap:square;stroke-linejoin:round;stroke-dasharray:none;paint-order:markers fill stroke"
             id="path6"
             cx="-69.045387"
             cy="97.149994"
             r="32.275543"
             transform="rotate(-38.844499)" /><path
             style="fill:none;stroke:#ffffff;stroke-width:6.05542;stroke-linecap:butt;stroke-linejoin:round;stroke-dasharray:none;paint-order:markers fill stroke"
             id="circle17"
             d="m -42.606809,78.637504 a 32.275543,32.275543 0 0 1 -1e-6,37.024986"
             transform="rotate(-38.844499)" /></g></g><rect
         style="fill:#535353;fill-opacity:1;stroke:#333333;stroke-width:2.00001;stroke-linecap:round;stroke-linejoin:round;stroke-dasharray:none;paint-order:markers fill stroke"
         id="rect18"
         width="75.761017"
         height="40.680668"
         x="-28.763964"
         y="0" /><rect
         style="fill:#535353;fill-opacity:1;stroke:#333333;stroke-width:2;stroke-linecap:round;stroke-linejoin:round;stroke-dasharray:none;paint-order:markers fill stroke"
         id="rect22"
         width="78.853279"
         height="23.873974"
         x="88.573357"
         y="104.12602" /><g
         id="g24"
         transform="matrix(1.1543398,0,0,1.1576863,-22.767676,9.5044855)"
         style="stroke:none;stroke-width:0.865043"><rect
           style="fill:#666666;stroke:#999999;stroke-width:1.73009;stroke-linecap:square;stroke-linejoin:miter;stroke-dasharray:none;paint-order:markers fill stroke"
           id="rect17"
           width="43.915695"
           height="29.320164"
           x="72.510101"
           y="13.214192" /><path
           fill="#e0e0e0"
           d="m 97.276644,17.681899 a 5.5594831,5.5594831 0 0 0 -5.559479,5.146227 5.5594831,5.5594831 0 1 0 -5.559491,9.352905 v 4.032479 a 1.853161,1.853161 0 0 0 1.853167,1.85316 h 11.118978 a 1.853161,1.853161 0 0 0 1.853151,-1.85316 v -1.853163 l 5.55948,3.706323 V 26.947704 l -5.55948,3.706322 v -3.280095 a 5.5594831,5.5594831 0 0 0 -3.706326,-9.692032 z"
           id="path1"
           style="stroke:none;stroke-width:0.86504" /></g><path
         d="M 90.000997,79.232117 66.76092,54.789092 l 0.22237,38.330516 8.413746,-4.871683 6.22035,11.473165 6.327779,-3.890411 -6.22036,-11.473201 z"
         style="fill:#4d4d4d;stroke:#999999;stroke-width:1.99999;stroke-linecap:butt;stroke-linejoin:miter;stroke-dasharray:none;paint-order:markers fill stroke"
         id="path15" /></g></g></svg>
